#!OML:ASF H:\ManfredETheater\Project 1\Capture day 1\Session 1\subject.ASF
:FULLY-SPECIFIED
:DEGREES
63
root 1.63951 16.3065 19.0864 -153.147 -8.50388 182.35
lowerback 14.2386 2.22097 5.45604
upperback 0.149627 3.81496 1.99143
thorax -7.61392 1.60123 -1.7178
lowerneck -18.9974 -6.03348 -5.96653
upperneck -0.891647 -7.49923 4.05615
head 3.04609 -3.80197 1.57392
rclavicle 0 3.4191e-014
rhumerus -28.9432 14.6408 -84.8248
rradius 113.924
rwrist -16.1152
rhand -24.9687 9.55396
rfingers 7.12502
rthumb 1.54181 -20.4202
lclavicle 0 3.4191e-014
lhumerus -71.7271 -11.3284 92.9106
lradius 108.594
lwrist 16.3732
lhand -20.4452 -5.16467
lfingers 7.12502
lthumb 5.90999 24.7329
rfemur 6.34428 2.13912 29.9363
rtibia 27.9345
rfoot 21.61 -9.97062
rtoes -15.1698
lfemur -75.8127 1.76155 -23.6584
ltibia 59.527
lfoot -17.0907 -14.4162
ltoes -6.08438
64
root 1.65299 16.3122 18.5335 -153.319 -8.83455 182.393
lowerback 14.3936 2.21222 5.31499
upperback 0.25815 3.78103 2.02146
thorax -7.59687 1.58964 -1.60501
lowerneck -18.9936 -6.06834 -5.97751
upperneck -1.11774 -7.56544 4.25685
head 2.9881 -3.83297 1.63508
rclavicle 4.85035e-014 -7.15625e-015
rhumerus -29.6547 13.7879 -85.3895
rradius 111.049
rwrist -15.8121
rhand -24.5765 8.60933
rfingers 7.12502
rthumb 1.92059 -21.3618
lclavicle 4.85035e-014 -7.15625e-015
lhumerus -69.9944 -10.9699 93.2234
lradius 108.397
lwrist 16.2256
lhand -20.7441 -5.11456
lfingers 7.12502
lthumb 5.62138 24.7909
rfemur 5.08682 1.49489 30.3413
rtibia 32.2405
rfoot 20.401 -10.8082
rtoes -14.1101
lfemur -74.8499 2.06028 -24.1849
ltibia 58.2284
lfoot -16.7685 -14.2969
ltoes -5.42434
65
root 1.66733 16.3109 17.9794 -153.492 -9.12753 182.336
lowerback 14.5278 2.1781 5.02893
upperback 0.367449 3.68927 2.034
thorax -7.57843 1.55638 -1.41741
lowerneck -18.9497 -6.05998 -5.92627
upperneck -1.37912 -7.58954 4.43356
head 2.90862 -3.84579 1.68476
rclavicle -7.95139e-016 -1.35174e-014
rhumerus -30.4579 12.8531 -85.9868
rradius 107.919
rwrist -15.4228
rhand -24.3237 7.66403
rfingers 7.12502
rthumb 2.16475 -22.3047
lclavicle -7.95139e-016 -1.35174e-014
lhumerus -68.1319 -10.6351 93.6042
lradius 108.117
lwrist 15.9325
lhand -21.062 -5.11789
lfingers 7.12502
lthumb 5.31452 24.7955
rfemur 3.58837 0.719954 30.5815
rtibia 36.8463
rfoot 19.3516 -11.5285
rtoes -12.9871
lfemur -73.7848 2.29491 -24.6681
ltibia 57.6031
lfoot -16.6434 -14.0266
ltoes -3.96146
66
root 1.68112 16.3033 17.4238 -153.68 -9.3905 182.154
lowerback 14.662 2.11305 4.61189
upperback 0.477769 3.53485 2.01547
thorax -7.56704 1.49793 -1.1767
lowerneck -18.8774 -6.01248 -5.81191
upperneck -1.65438 -7.57531 4.58526
head 2.81601 -3.84179 1.72143
rclavicle 7.95139e-015 -6.36111e-015
rhumerus -31.3288 11.8563 -86.5866
rradius 104.553
rwrist -15.0515
rhand -24.2444 6.74421
rfingers 7.12502
rthumb 2.24133 -23.2238
lclavicle 7.95139e-015 -6.36111e-015
lhumerus -66.1567 -10.3539 94.033
lradius 107.759
lwrist 15.5378
lhand -21.3621 -5.15849
lfingers 7.12502
lthumb 5.02469 24.7619
rfemur 1.89735 -0.1573 30.6341
rtibia 41.6518
rfoot 18.4641 -11.988
rtoes -11.8138
lfemur -72.587 2.40632 -25.0762
ltibia 57.619
lfoot -17.1146 -13.4539
ltoes -2.94317
67
root 1.69345 16.2897 16.8676 -153.898 -9.62955 181.833
lowerback 14.8323 2.01411 4.07902
upperback 0.587525 3.31689 1.95609
thorax -7.58121 1.41228 -0.902286
lowerneck -18.4814 -5.92466 -5.6927
upperneck -2.37585 -7.52322 4.62363
head 2.89022 -3.83546 1.90981
rclavicle -7.15625e-015 1.66979e-014
rhumerus -32.2556 10.8167 -87.1688
rradius 100.975
rwrist -14.7992
rhand -24.3779 5.87259
rfingers 7.12502
rthumb 2.11242 -24.0967
lclavicle -7.15625e-015 1.66979e-014
lhumerus -64.0875 -10.1489 94.4964
lradius 107.338
lwrist 15.1008
lhand -21.6264 -5.22705
lfingers 7.12502
lthumb 4.76951 24.6993
rfemur 0.050909 -1.11864 30.4816
rtibia 46.5986
rfoot 17.6118 -12.0954
rtoes -10.7812
lfemur -71.2184 2.35771 -25.3994
ltibia 58.1741
lfoot -17.803 -12.7511
ltoes -0.630042
68
root 1.70363 16.2697 16.3124 -154.145 -9.84054 181.342
lowerback 15.0663 1.8837 3.42623
upperback 0.693165 3.03677 1.84078
thorax -7.63714 1.29959 -0.607985
lowerneck -18.3725 -5.82161 -5.49287
upperneck -2.62068 -7.45022 4.75535
head 2.77743 -3.80386 1.92979
rclavicle 3.18055e-015 -4.21423e-014
rhumerus -33.2202 9.73455 -87.7217
rradius 97.206
rwrist -14.7292
rhand -24.6808 5.10592
rfingers 7.12502
rthumb 1.81983 -24.8661
lclavicle 3.18055e-015 -4.21423e-014
lhumerus -61.9419 -10.0476 94.9874
lradius 106.884
lwrist 14.6755
lhand -21.851 -5.32531
lfingers 7.12502
lthumb 4.55263 24.6058
rfemur -1.93235 -2.14567 30.0876
rtibia 51.6384
rfoot 16.6265 -11.7963
rtoes -10.1045
lfemur -69.6534 2.12358 -25.6805
ltibia 59.1103
lfoot -18.8305 -11.9409
ltoes 2.18936
69
root 1.7112 16.2433 15.7593 -154.398 -10.0035 180.621
lowerback 15.3626 1.73015 2.60533
upperback 0.791571 2.69326 1.65105
thorax -7.73594 1.16109 -0.284326
lowerneck -18.2691 -5.71025 -5.29709
upperneck -2.83512 -7.36361 4.91272
head 2.67788 -3.7641 1.95977
rclavicle -1.86858e-014 4.05521e-014
rhumerus -34.2127 8.60933 -88.2264
rradius 93.2895
rwrist -14.8733
rhand -25.1427 4.45455
rfingers 7.12502
rthumb 1.37371 -25.5208
lclavicle -1.86858e-014 4.05521e-014
lhumerus -59.7208 -10.0696 95.5064
lradius 106.415
lwrist 14.3039
lhand -22.0331 -5.48754
lfingers 7.12502
lthumb 4.3768 24.4472
rfemur -4.06791 -3.23276 29.3732
rtibia 56.7603
rfoot 15.4093 -11.1033
rtoes -9.85476
lfemur -67.8867 1.68966 -26.0223
ltibia 60.2672
lfoot -20.1269 -11.0105
ltoes 5.15317
70
root 1.71582 16.2138 15.2081 -154.642 -10.1164 179.652
lowerback 15.7251 1.56188 1.60802
upperback 0.876092 2.29032 1.38212
thorax -7.88334 0.998743 0.0694049
lowerneck -18.1851 -5.60727 -5.14051
upperneck -2.99824 -7.27777 5.11833
head 2.60494 -3.72141 2.0119
rclavicle -3.85642e-014 -1.35174e-014
rhumerus -35.2478 7.43028 -88.6613
rradius 89.2923
rwrist -15.2085
rhand -25.7524 3.94835
rfingers 7.12502
rthumb 0.784894 -26.03
lclavicle -3.85642e-014 -1.35174e-014
lhumerus -57.4311 -10.2426 96.0547
lradius 105.962
lwrist 14.0084
lhand -22.185 -5.66361
lfingers 7.12502
lthumb 4.2301 24.2741
rfemur -6.35099 -4.38816 28.307
rtibia 61.9095
rfoot 13.9475 -10.0634
rtoes -10.0645
lfemur -65.8972 1.07338 -26.4986
ltibia 61.4606
lfoot -21.614 -10.0787
ltoes 8.03851
71
root 1.71723 16.1709 14.6637 -154.849 -10.1809 178.48
lowerback 16.1241 1.39068 0.47762
upperback 0.935939 1.84474 1.04857
thorax -8.06951 0.819495 0.443167
lowerneck -18.1361 -5.52796 -5.05385
upperneck -3.09182 -7.20666 5.38679
head 2.57049 -3.68114 2.09512
rclavicle -3.97569e-016 2.38542e-015
rhumerus -36.3658 6.20322 -88.9978
rradius 85.3289
rwrist -15.7032
rhand -26.4993 3.59264
rfingers 7.12502
rthumb 0.0634641 -26.3871
lclavicle -3.97569e-016 2.38542e-015
lhumerus -55.075 -10.5824 96.6229
lradius 105.562
lwrist 13.807
lhand -22.3026 -5.87215
lfingers 7.12502
lthumb 4.11657 24.0678
rfemur -8.82594 -5.60237 26.936
rtibia 67.0739
rfoot 12.2335 -8.76088
rtoes -10.6505
lfemur -63.7879 0.31918 -27.1283
ltibia 62.5855
lfoot -23.1968 -9.21107
ltoes 10.606
72
root 1.7152 16.1257 14.1231 -154.977 -10.1985 177.185
lowerback 16.5095 1.22928 -0.718167
upperback 0.958526 1.38256 0.674255
thorax -8.27663 0.634508 0.819714
lowerneck -18.1486 -5.487 -5.05719
upperneck -3.10008 -7.16586 5.72024
head 2.58661 -3.65008 2.21224
rclavicle 8.46823e-014 -1.35174e-014
rhumerus -37.6191 4.95173 -89.208
rradius 81.5406
rwrist -16.2912
rhand -27.3795 3.37303
rfingers 7.12502
rthumb -0.78666 -26.6053
lclavicle 8.46823e-014 -1.35174e-014
lhumerus -52.6486 -11.103 97.1976
lradius 105.246
lwrist 13.694
lhand -22.3797 -6.13761
lfingers 7.12502
lthumb 4.04209 23.8038
rfemur -11.5405 -6.8442 25.3463
rtibia 72.1636
rfoot 10.3398 -7.32419
rtoes -11.6075
lfemur -61.5699 -0.503464 -27.8707
ltibia 63.5096
lfoot -24.8564 -8.48352
ltoes 12.6674
